<svg width="375" height="115" viewBox="0 0 375 115" fill="none" xmlns="http://www.w3.org/2000/svg">
<path d="M6.38065 31.1767C1.18065 35.1767 3.54732 51.8434 5.38065 59.6767H36.3807C44.7807 63.6767 40 71 36.3807 71.1767H1.88064C-1.71936 82.7767 6.50255 91.6767 12.3806 91.6767C45.214 91.51 116.081 91.1767 136.881 91.1767C156.081 77.5767 145.214 64.8434 137.381 60.1767C130.214 57.8434 115.981 53.2767 116.381 53.6767C96.8806 76 96.0473 59.1767 103.381 49.1767L96.8806 45.1767C77.5 63.5 79.5 44.5 87.3806 38.1767L70.3806 26.6767C65.8806 23.3434 55.1806 19.5767 48.3806 31.1767C39.8806 45.6767 39.8806 33.1767 27.8806 28.6767C15.8806 24.1767 12.8807 26.1767 6.38065 31.1767Z" fill="#4A4E69" stroke="#4A4E69"/>
<path d="M172.616 3L172.616 112" stroke="#4A4E69" stroke-width="5" stroke-linecap="round"/>
<path d="M229.468 30.72C232.028 31.32 234.008 32.56 235.408 34.44C236.848 36.28 237.568 38.42 237.568 40.86C237.568 44.58 236.328 47.46 233.848 49.5C231.408 51.5 227.888 52.5 223.288 52.5H201.028V10.02H222.688C227.008 10.02 230.408 10.96 232.888 12.84C235.368 14.72 236.608 17.46 236.608 21.06C236.608 23.54 235.948 25.64 234.628 27.36C233.348 29.04 231.628 30.16 229.468 30.72ZM214.348 26.58H219.508C220.708 26.58 221.588 26.34 222.148 25.86C222.748 25.38 223.048 24.64 223.048 23.64C223.048 22.6 222.748 21.84 222.148 21.36C221.588 20.84 220.708 20.58 219.508 20.58H214.348V26.58ZM220.408 41.82C221.608 41.82 222.488 41.6 223.048 41.16C223.648 40.68 223.948 39.92 223.948 38.88C223.948 36.84 222.768 35.82 220.408 35.82H214.348V41.82H220.408ZM264.004 52.5L256.024 37.26H255.964V52.5H242.644V10.02H262.444C265.884 10.02 268.824 10.64 271.264 11.88C273.704 13.08 275.524 14.74 276.724 16.86C277.964 18.94 278.584 21.3 278.584 23.94C278.584 26.78 277.784 29.3 276.184 31.5C274.624 33.7 272.364 35.28 269.404 36.24L278.644 52.5H264.004ZM255.964 28.38H261.244C262.524 28.38 263.484 28.1 264.124 27.54C264.764 26.94 265.084 26.02 265.084 24.78C265.084 23.66 264.744 22.78 264.064 22.14C263.424 21.5 262.484 21.18 261.244 21.18H255.964V28.38ZM310.679 46.08H296.519L294.419 52.5H280.439L295.979 10.02H311.339L326.819 52.5H312.779L310.679 46.08ZM307.439 36.06L303.599 24.24L299.759 36.06H307.439ZM371.186 52.5H357.866L343.766 31.14V52.5H330.446V10.02H343.766L357.866 31.74V10.02H371.186V52.5Z" fill="#4A4E69"/>
<path d="M241.247 77.6C241.247 80.28 240.627 82.72 239.387 84.92C238.147 87.08 236.307 88.8 233.867 90.08C231.467 91.36 228.547 92 225.107 92H219.827V105.5H206.507V63.02H225.107C230.307 63.02 234.287 64.34 237.047 66.98C239.847 69.62 241.247 73.16 241.247 77.6ZM223.607 81.5C226.367 81.5 227.747 80.2 227.747 77.6C227.747 75 226.367 73.7 223.607 73.7H219.827V81.5H223.607ZM266.772 105.92C262.772 105.92 259.092 104.98 255.732 103.1C252.412 101.22 249.772 98.62 247.812 95.3C245.852 91.98 244.872 88.24 244.872 84.08C244.872 79.92 245.852 76.18 247.812 72.86C249.772 69.54 252.412 66.96 255.732 65.12C259.092 63.24 262.772 62.3 266.772 62.3C270.772 62.3 274.432 63.24 277.752 65.12C281.072 66.96 283.692 69.54 285.612 72.86C287.572 76.18 288.552 79.92 288.552 84.08C288.552 88.24 287.572 91.98 285.612 95.3C283.692 98.62 281.052 101.22 277.692 103.1C274.372 104.98 270.732 105.92 266.772 105.92ZM266.772 93.5C269.412 93.5 271.452 92.66 272.892 90.98C274.332 89.26 275.052 86.96 275.052 84.08C275.052 81.16 274.332 78.86 272.892 77.18C271.452 75.46 269.412 74.6 266.772 74.6C264.092 74.6 262.032 75.46 260.592 77.18C259.152 78.86 258.432 81.16 258.432 84.08C258.432 86.96 259.152 89.26 260.592 90.98C262.032 92.66 264.092 93.5 266.772 93.5ZM315.317 105.5L307.337 90.26H307.277V105.5H293.957V63.02H313.757C317.197 63.02 320.137 63.64 322.577 64.88C325.017 66.08 326.837 67.74 328.037 69.86C329.277 71.94 329.897 74.3 329.897 76.94C329.897 79.78 329.097 82.3 327.497 84.5C325.937 86.7 323.677 88.28 320.717 89.24L329.957 105.5H315.317ZM307.277 81.38H312.557C313.837 81.38 314.797 81.1 315.437 80.54C316.077 79.94 316.397 79.02 316.397 77.78C316.397 76.66 316.057 75.78 315.377 75.14C314.737 74.5 313.797 74.18 312.557 74.18H307.277V81.38ZM368.112 63.02V73.58H356.832V105.5H343.512V73.58H332.352V63.02H368.112Z" fill="#4A4E69"/>
</svg>
